<?xml version="1.0" encoding="UTF-8"?>
<svg xmlns="http://www.w3.org/2000/svg" viewBox="0 0 165.8066 226.4942">
  <g id="layer" data-name="layer_1">
    <g>
      <path class="cls-1" d="M43.7637,53.3843c2.1084,.146,4.1772-.334,5.9799-1.352,1.377,.7837,2.92,1.2558,4.521,1.3676,.2525,.0176,.503,.0264,.752,.0264,5.5513-.0005,10.2505-4.312,10.6435-9.9326,.147-2.1016-.3344-4.1772-1.3515-5.9795,.7832-1.3769,1.2558-2.9199,1.3676-4.521,.4107-5.873-4.0332-10.9853-9.9067-11.396-2.0967-.1431-4.1763,.3345-5.9795,1.3521-1.3764-.7832-2.9194-1.2559-4.521-1.3682-5.8764-.4111-10.9853,4.0337-11.396,9.9067-.1465,2.1016,.335,4.1773,1.3521,5.9795-.7837,1.377-1.2559,2.92-1.3677,4.521-.4106,5.8731,4.0332,10.9854,9.9063,11.396Z"/>
      <path class="cls-1" d="M96.0088,35.92c.4736,2.1157,1.4648,4.0932,2.9033,5.7475,2.3096,2.6568,5.5146,4.2554,9.0264,4.501,.3134,.022,.6269,.0327,.9384,.0327,3.1739,0,6.2071-1.1304,8.626-3.2334,2.1221-1.8452,3.5762-4.3061,4.1924-7.0068,2.1152-.4741,4.0928-1.4649,5.7471-2.9029,2.6572-2.3095,4.2558-5.5151,4.5009-9.0263,.2461-3.5112-.8906-6.9082-3.2002-9.5645-1.8447-2.1225-4.3056-3.5771-7.0068-4.1928-.4736-2.1148-1.4648-4.0928-2.9033-5.7481-4.7666-5.4839-13.1074-6.0669-18.5908-1.2998-2.1221,1.8447-3.5772,4.3057-4.1924,7.0068-2.1152,.4747-4.0928,1.4649-5.7471,2.9029-2.6572,2.3095-4.2558,5.5151-4.501,9.0263-.2461,3.5113,.8907,6.9082,3.2002,9.565,1.8448,2.1221,4.3057,3.5766,7.0069,4.1924Z"/>
      <path class="cls-1" d="M159.3066,79.0987v10.3901c0,2.731-2.2217,4.9531-4.9531,4.9531h-7.9648v-18.4731h3.2314c1.7949,0,3.25-1.4551,3.25-3.25s-1.4551-3.25-3.25-3.25H16.187c-1.7949,0-3.25,1.4551-3.25,3.25s1.4551,3.25,3.25,3.25h3.2309v18.4731h-7.9653c-2.7309,0-4.9526-2.2221-4.9526-4.9531v-10.3901H0v10.3901c0,6.3154,5.1377,11.4531,11.4526,11.4531h7.9653v102.3023c0,12.8203,10.4297,23.25,23.25,23.25H123.1387c12.8203,0,23.25-10.4297,23.25-23.25V100.9419h7.9648c6.3154,0,11.4531-5.1377,11.4531-11.4531v-10.3901h-6.5ZM42.6875,201.2872h-6.5V121.2022h6.5v80.085Zm0-94.1075h-6.5v-16.02h6.5v16.02Z"/>
    </g>
  </g>
</svg>
