<?xml version="1.0" encoding="UTF-8"?>
<svg xmlns="http://www.w3.org/2000/svg" viewBox="0 0 190.3354 227">
  <g id="layer" data-name="layer_1">
    <g>
      <path class="cls-1" d="M141.3777,154.19v6.61c0,.13-.09,.24-.21,.28-24.73,8.75-51.96,8.75-76.68,0-.13-.04-.21-.15-.21-.28v-6.61c12.54,4.11,25.54,6.17,38.55,6.17,13,0,26.01-2.06,38.55-6.17Z"/>
      <path class="cls-1" d="M64.2777,161.61c0,2.99,1.88,5.72,4.68,6.79,10.92,4.16,22.39,6.25,33.87,6.25,11.47,0,22.95-2.09,33.87-6.25,2.8-1.07,4.68-3.8,4.68-6.79v-32.98c14.45-2.78,24.79-15.72,24.01-30.79-.74-14.28-11.99-26.31-26.18-27.99-2.32-.27-4.66-.28-6.96-.01-5.84-10.7-17.11-17.48-29.42-17.48-12.32,0-23.59,6.78-29.42,17.48-2.31-.27-4.64-.26-6.97,.01-14.18,1.68-25.44,13.71-26.17,27.99-.78,15.07,9.56,28.01,24.01,30.79v32.98ZM190.0877,33.5V193.5c0,18.33-14.92,33.25-33.25,33.25H8.4977c-4.55,0-8.25-3.7-8.25-8.25V8.5C.2477,3.95,3.9477,.25,8.4977,.25H156.8377c18.33,0,33.25,14.92,33.25,33.25ZM15.5677,220.25V6.75h-7.07c-.96,0-1.75,.79-1.75,1.75V218.5c0,.96,.79,1.75,1.75,1.75h7.07Z"/>
    </g>
  </g>
</svg>
