<?xml version="1.0" encoding="UTF-8"?>
<svg xmlns="http://www.w3.org/2000/svg" viewBox="0 0 187.6446 226.5">
  <g id="layer" data-name="layer_1">
    <path class="cls-1" d="M184.3946,35.6865h-7.8106V3.25c0-1.7949-1.4551-3.25-3.25-3.25H27.4053C7.1773,0,0,11.3628,0,21.0933l.0005,.0206-.0005,.0048V197.168c0,16.1738,13.1582,29.332,29.3316,29.332H176.9424c5.9014,0,10.7022-4.8008,10.7022-10.7021V38.9365c0-1.7949-1.4551-3.25-3.25-3.25ZM27.4053,6.5H170.084v29.1865H27.4053c-12.895,0-20.9053-5.5918-20.9053-14.5932S14.5103,6.5,27.4053,6.5Zm30.8745,35.6865h49.814V120.4326l-22.9302-17.5747c-1.166-.8935-2.7881-.8935-3.9541,0l-22.9297,17.5747V42.1865Z"/>
  </g>
</svg>
