<?xml version="1.0" encoding="UTF-8"?>
<svg xmlns="http://www.w3.org/2000/svg" viewBox="0 0 227 221.9331">
  <g id="layer" data-name="layer_1">
    <path class="cls-1" d="M128.1016,4.3007c-8.8721-5.7343-20.3335-5.7343-29.2032,0L0,68.2377V205.5659c0,9.0244,7.3423,16.3672,16.3667,16.3672H210.6328c9.0244,0,16.3672-7.3428,16.3672-16.3672V68.2377L128.1016,4.3007Zm-25.4024,5.8789c6.5601-4.2422,15.0401-4.2422,21.6016,0l95.495,61.7357-38.747,29.2731-7.7588-40.7475c-.1748-.9151-.706-1.7227-1.4775-2.2447-.7715-.5214-1.7187-.7143-2.6338-.5351L39.0957,83.1342c-1.8901,.3701-3.126,2.1973-2.7656,4.0894l1.4893,7.8211L7.2045,71.9151,102.6992,10.1796ZM46.142,101.3325l-2.2846-11.9981,123.2139-24.1279,7.7474,40.6887-49.2767,37.2283c-7.0889,5.3574-16.9927,5.3584-24.0845,0l-55.3155-41.791Zm164.4908,113.6006H16.3667c-5.165,0-9.3667-4.2022-9.3667-9.3672V80.5336l33.2776,25.1417c.3714,.4598,.8436,.8248,1.3876,1.0483l55.5726,41.9858c4.7881,3.6172,10.5239,5.4258,16.2622,5.4258s11.4756-1.8096,16.2617-5.4258l90.2383-68.1754v125.0319c0,5.165-4.2021,9.3672-9.3672,9.3672Z"/>
  </g>
</svg>
