<?xml version="1.0" encoding="UTF-8"?>
<svg xmlns="http://www.w3.org/2000/svg" viewBox="0 0 187.6446 226.5">
  <g id="layer" data-name="layer_1">
    <path class="cls-1" d="M184.3946,35.6865h-7.8106V3.25c0-1.7949-1.4551-3.25-3.25-3.25H27.4053C7.1773,0,0,11.3628,0,21.0933l.0005,.0206-.0005,.0048V197.168c0,16.1738,13.1582,29.332,29.3316,29.332H176.9424c5.9014,0,10.7022-4.8008,10.7022-10.7021V38.9365c0-1.7949-1.4551-3.25-3.25-3.25ZM27.4053,6.5H170.084v29.1865H27.4053c-12.895,0-20.9053-5.5918-20.9053-14.5932S14.5103,6.5,27.4053,6.5Zm30.8745,35.6865h49.814V120.4326l-22.9302-17.5747c-1.166-.8935-2.7881-.8935-3.9541,0l-22.9297,17.5747V42.1865Zm118.6626,177.8135H29.3316c-2.884,0-5.6421-.5429-8.1848-1.523V41.7763c1.9334,.2628,4.0109,.4102,6.2585,.4102h24.3745V127.0186c0,1.2373,.7022,2.3671,1.8115,2.914,.4561,.2256,.9483,.336,1.438,.336,.7022,0,1.3994-.2276,1.9776-.6709l26.1797-20.0655,26.1806,20.0655c.9824,.7529,2.3067,.8837,3.4151,.3349,1.1093-.5469,1.8115-1.6767,1.8115-2.914V42.1865h66.5508V215.7979c0,2.3173-1.8848,4.2021-4.2022,4.2021Z"/>
  </g>
</svg>
