<?xml version="1.0" encoding="UTF-8"?>
<svg xmlns="http://www.w3.org/2000/svg" viewBox="0 0 165.8066 226.4942">
  <g id="layer" data-name="layer_1">
    <g>
      <path class="cls-1" d="M159.3066,79.0987v10.3901c0,2.731-2.2217,4.9531-4.9531,4.9531h-7.9648v-18.4731h3.2314c1.7949,0,3.25-1.4551,3.25-3.25s-1.4551-3.25-3.25-3.25H16.187c-1.7949,0-3.25,1.4551-3.25,3.25s1.4551,3.25,3.25,3.25h3.2309v18.4731h-7.9653c-2.7309,0-4.9526-2.2221-4.9526-4.9531v-10.3901H0v10.3901c0,6.3154,5.1377,11.4531,11.4526,11.4531h7.9653v102.3023c0,12.8203,10.4297,23.25,23.25,23.25H123.1387c12.8203,0,23.25-10.4297,23.25-23.25V100.9419h7.9648c6.3154,0,11.4531-5.1377,11.4531-11.4531v-10.3901h-6.5Zm-19.4179,124.1455c0,9.2363-7.5137,16.75-16.75,16.75H42.6679c-9.2358,0-16.75-7.5137-16.75-16.75V75.9688h113.9708v127.2754Z"/>
      <rect class="cls-1" x="36.1875" y="121.2022" width="6.5" height="80.085"/>
      <rect class="cls-1" x="36.1875" y="91.1597" width="6.5" height="16.02"/>
      <path class="cls-1" d="M43.7637,53.3843c2.1084,.146,4.1772-.334,5.9799-1.352,1.377,.7837,2.92,1.2558,4.521,1.3676,.2525,.0176,.503,.0264,.752,.0264,5.5513-.0005,10.2505-4.312,10.6435-9.9326,.147-2.1016-.3344-4.1772-1.3515-5.9795,.7832-1.3769,1.2558-2.9199,1.3676-4.521,.4107-5.873-4.0332-10.9853-9.9067-11.396-2.0967-.1431-4.1763,.3345-5.9795,1.3521-1.3764-.7832-2.9194-1.2559-4.521-1.3682-5.8764-.4111-10.9853,4.0337-11.396,9.9067-.1465,2.1016,.335,4.1773,1.3521,5.9795-.7837,1.377-1.2559,2.92-1.3677,4.521-.4106,5.8731,4.0332,10.9854,9.9063,11.396Zm-2.19-18.2051c-.8569-.8588-1.3003-2.039-1.2163-3.2382,.0776-1.1128,.5845-2.1289,1.4268-2.8609,.8418-.7324,1.9218-1.0937,3.0307-1.0146,1.2847,.0898,2.1577,.7153,2.6636,1.2236,.6084,.6118,1.4351,.9565,2.2978,.958h.0064c.8603,0,1.6855-.3413,2.2949-.9487,.8594-.8574,2.0405-1.3037,3.2388-1.2168,1.1128,.0776,2.1289,.5845,2.8608,1.4267,.7324,.8418,1.0928,1.9185,1.0147,3.0318-.0698,1.0014-.5044,1.9468-1.2232,2.6616-.6118,.6084-.9565,1.4356-.9585,2.2983-.0014,.8628,.3399,1.691,.9493,2.3018,.8569,.8589,1.3002,2.0396,1.2163,3.2388-.0777,1.1128-.5845,2.1289-1.4263,2.8608-.8423,.7319-1.9238,1.0899-3.0317,1.0142-1.2842-.0899-2.1568-.7149-2.6626-1.2232-.6084-.6118-1.4351-.9565-2.2979-.958h-.0063c-.8604,0-1.6856,.3413-2.295,.9487-.8593,.8575-2.042,1.3038-3.2392,1.2168-1.1128-.0776-2.1289-.5844-2.8609-1.4262-.7319-.8423-1.0922-1.919-1.0141-3.0322,.0898-1.2842,.7148-2.1568,1.2231-2.6626,.6118-.6084,.9566-1.4356,.958-2.2984,.0015-.8623-.3398-1.6904-.9492-2.3013Z"/>
      <path class="cls-1" d="M96.0088,35.92c.4736,2.1157,1.4648,4.0932,2.9033,5.7475,2.3096,2.6568,5.5146,4.2554,9.0264,4.501,.3134,.022,.6269,.0327,.9384,.0327,3.1739,0,6.2071-1.1304,8.626-3.2334,2.1221-1.8452,3.5762-4.3061,4.1924-7.0068,2.1152-.4741,4.0928-1.4649,5.7471-2.9029,2.6572-2.3095,4.2558-5.5151,4.5009-9.0263,.2461-3.5112-.8906-6.9082-3.2002-9.5645-1.8447-2.1225-4.3056-3.5771-7.0068-4.1928-.4736-2.1148-1.4648-4.0928-2.9033-5.7481-4.7666-5.4839-13.1074-6.0669-18.5908-1.2998-2.1221,1.8447-3.5772,4.3057-4.1924,7.0068-2.1152,.4747-4.0928,1.4649-5.7471,2.9029-2.6572,2.3095-4.2558,5.5151-4.501,9.0263-.2461,3.5113,.8907,6.9082,3.2002,9.565,1.8448,2.1221,4.3057,3.5766,7.0069,4.1924Zm-3.7227-13.3037c.124-1.7793,.9346-3.4039,2.2803-4.5743,1.209-1.0503,2.7627-1.6284,4.3769-1.6284,.0079,0,.0147,.0005,.0254,0,.8594,0,1.6846-.3408,2.294-.9472,.6103-.6089,.9551-1.4356,.956-2.2984,.003-1.939,.8369-3.7744,2.2871-5.0351,2.7793-2.4161,7.0039-2.1206,9.4209,.6582,1.0557,1.2133,1.6338,2.7734,1.6289,4.3925-.0029,.8628,.3379,1.6914,.9473,2.3028,.6084,.6113,1.4356,.9555,2.2979,.957,1.9394,.0029,3.7754,.8364,5.0361,2.2881,1.1709,1.3462,1.7471,3.0674,1.6221,4.8467-.1241,1.7793-.9346,3.4038-2.2803,4.5742-1.209,1.0503-2.7627,1.6284-4.377,1.6284-.0078,0-.0136,.0005-.0254,0-.8593,0-1.6845,.3408-2.2939,.9473-.6103,.6089-.9551,1.4355-.9561,2.2983-.0029,1.9385-.8369,3.7739-2.288,5.0361-1.3467,1.1705-3.0713,1.7432-4.8467,1.6216-1.7793-.1245-3.4033-.9341-4.5742-2.2812-1.0547-1.2129-1.6328-2.773-1.6289-4.3936,.0019-.8628-.3389-1.6909-.9473-2.3017-.6084-.6114-1.4356-.9551-2.2979-.9566-1.9384-.0029-3.7744-.8364-5.0351-2.2881-1.1709-1.3462-1.7471-3.0673-1.6221-4.8466Z"/>
    </g>
  </g>
</svg>
