<?xml version="1.0" encoding="UTF-8"?>
<svg xmlns="http://www.w3.org/2000/svg" viewBox="0 0 189.8354 226.5">
  <g id="layer" data-name="layer_1">
    <g>
      <path class="cls-1" d="M138.9604,69.6011c-2.3271-.273-4.6592-.2783-6.9609-.0142-5.8369-10.6987-17.1074-17.4741-29.4238-17.4741s-23.5865,6.7754-29.4229,17.4741c-2.3032-.2646-4.6352-.2593-6.9609,.0142-14.1861,1.6748-25.44,13.706-26.1768,27.9858-.7783,15.0718,9.563,28.0156,24.0122,30.7901v32.9824c0,2.9951,1.8794,5.7236,4.6778,6.791,10.9209,4.1631,22.3955,6.2451,33.8706,6.2451s22.9511-2.082,33.873-6.2451c2.7969-1.0674,4.6758-3.7969,4.6758-6.791v-32.9824c14.4492-2.7745,24.79-15.7183,24.0127-30.7901-.7373-14.2803-11.9912-26.3115-26.1768-27.9858Zm-5.0068,92.0083c-20.2344,7.7138-42.5205,7.7138-62.7549,0-.1025-.0391-.1714-.1397-.1714-.25v-5.8307c10.261,3.6234,20.9043,5.4391,31.5484,5.4391s21.2873-1.8157,31.5488-5.4391v5.8307c0,.1103-.0693,.2109-.1709,.25Zm3.3789-39.7686c-1.8135,.1524-3.208,1.668-3.208,3.4883v22.7156c-20.4362,7.8572-42.6594,7.8572-63.0972,.0002v-22.7158c0-1.8203-1.3945-3.3359-3.2085-3.4883-12.3095-1.0283-21.4516-11.5239-20.8135-23.8926,.564-10.9174,9.1651-20.1157,20.0064-21.395,.9106-.1074,1.8213-.1611,2.7295-.1611,1.5766,0,3.1455,.1616,4.6875,.4839,1.6162,.3403,3.2451-.4976,3.9145-2.0039,4.2554-9.5733,13.7671-15.7593,24.2325-15.7593s19.9775,6.186,24.2334,15.7593c.6699,1.5063,2.3037,2.3418,3.914,2.0039,2.4297-.5078,4.9238-.6172,7.417-.3228,10.8418,1.2793,19.4424,10.4776,20.0068,21.3946,.6377,12.3691-8.5048,22.8647-20.8144,23.893Z"/>
      <path class="cls-1" d="M156.5854,0H8.25C3.7011,0,0,3.7012,0,8.25V218.25c0,4.5488,3.7011,8.25,8.25,8.25H156.5854c18.334,0,33.25-14.916,33.25-33.25V33.25c0-18.334-14.916-33.25-33.25-33.25ZM6.5,218.25V8.25c0-.9648,.7851-1.75,1.75-1.75h7.0669V220h-7.0669c-.9649,0-1.75-.7852-1.75-1.75Zm176.8354-25c0,14.75-12,26.75-26.75,26.75H21.8169V6.5H156.5854c14.75,0,26.75,12,26.75,26.75V193.25Z"/>
    </g>
  </g>
</svg>
